<?xml version="1.0" encoding="utf-8"?>
<!-- Generator: Adobe Illustrator 24.3.0, SVG Export Plug-In . SVG Version: 6.00 Build 0)  -->
<svg version="1.1" id="Layer_1" xmlns="http://www.w3.org/2000/svg" xmlns:xlink="http://www.w3.org/1999/xlink" x="0px" y="0px"
	 viewBox="0 0 625 400" style="enable-background:new 0 0 625 400;" xml:space="preserve">
<style type="text/css">
	.st0{fill:#73B7E5;stroke:#231F20;stroke-miterlimit:10;}
	.st1{fill:none;stroke:#B7670F;stroke-miterlimit:10;}
	.st2{fill:#B7670F;stroke:#B7670F;stroke-miterlimit:10;}
	.st3{fill:#B7670F;}
</style>
<rect class="st0" width="625" height="400"/>
<g>
	<g>
		<path class="st1" d="M53.39,42.95c0.25,1.55,1.35,2.7,3.99,2.7c1.47,0,3.18-0.38,3.18-1.84c0-1.26-1.13-1.84-4.57-2.58
			c-8.08-1.75-9.91-4.43-9.91-7.82c0-5.18,4.45-9.12,12.89-9.12c10.14,0,13.31,4.8,13.43,8.68h-9.6c-0.11-1.34-1.04-2.57-3.57-2.57
			c-1.14,0-2.68,0.26-2.68,1.64c0,1.09,1.11,1.62,4.31,2.35c8.29,1.87,10.39,4.53,10.39,8.27c0,6.08-5.53,9.24-14.06,9.24
			c-8.42,0-13.19-3.42-13.44-8.96H53.39z"/>
		<path class="st1" d="M106.5,36.29c0,8.2-5.38,15.59-17.55,15.62c-9.93,0.03-13.88-5.54-13.88-11.7c0-8.41,5.65-15.91,17.33-15.91
			C101.26,24.3,106.5,29.13,106.5,36.29z M85.7,40.6c0,2.81,1.28,4.51,3.76,4.51c4.16,0,6.25-5.73,6.25-9.87
			c0-2.51-1.15-4.21-3.86-4.21C87.9,31.03,85.7,36.59,85.7,40.6z"/>
		<path class="st1" d="M112.16,32.6c0.78-3.78,1.19-5.92,1.49-7.6h10.16c-0.03,0.68-0.11,1.77-0.28,2.83
			c1.94-1.98,4.38-3.53,8.35-3.53c4.66,0,6.09,1.95,6.78,3.82c1.8-1.72,4.49-3.82,9.58-3.82c6.43,0,9.27,3.91,7.7,11.28l-3.3,15.64
			h-10.41l3.15-14.96c0.46-2.09,0.6-4.52-2.1-4.52c-2.47,0-3.84,1.81-4.59,5.39l-2.99,14.09h-10.5l3.15-14.96
			c0.43-1.95,0.77-4.6-2.05-4.6c-2.47,0-3.95,2.1-4.7,5.67l-2.92,13.9h-10.46L112.16,32.6z"/>
		<path class="st1" d="M170.39,40.35c-0.02,0.21-0.04,0.61-0.04,0.83c0,2.31,1.18,4.04,4.01,4.04c2.41,0,3.51-0.78,4.33-2.17h10.22
			c-1.68,4.52-6.12,8.87-15.45,8.87c-10.03,0-13.46-5.8-13.46-11.96c0-7.51,5.15-15.66,16.79-15.66c9.53,0,13.63,5.05,13.65,11.36
			c0,1.79-0.22,3.2-0.65,4.69H170.39z M180.47,34.82c0.05-0.29,0.07-0.62,0.07-0.89c0-2.13-1.35-3.35-3.87-3.35
			c-2.77,0-4.48,1.69-5.07,4.24H180.47z"/>
		<path class="st1" d="M237.69,36.29c0,8.2-5.38,15.59-17.55,15.62c-9.93,0.03-13.88-5.54-13.88-11.7c0-8.41,5.65-15.91,17.33-15.91
			C232.45,24.3,237.69,29.13,237.69,36.29z M216.9,40.6c0,2.81,1.28,4.51,3.76,4.51c4.16,0,6.25-5.73,6.25-9.87
			c0-2.51-1.15-4.21-3.86-4.21C219.1,31.03,216.9,36.59,216.9,40.6z"/>
		<path class="st1" d="M242.49,25h4.21l1.68-7.42h10.61L257.3,25h5.11l-1.44,6.82h-5.09l-2.14,9.88c-0.4,1.84-0.24,2.77,1.93,2.77
			c0.67,0,1.74-0.05,2.33-0.17l-1.39,6.64c-1.87,0.42-3.98,0.6-6.02,0.6c-7.35,0-8.86-3.2-7.77-8.41l2.46-11.31h-4.22L242.49,25z"/>
		<path class="st1" d="M279.73,14.27l-2.81,13.25c1.41-1.26,3.87-3.23,8.44-3.23c6.62,0,9.41,4.17,7.93,11.25l-3.3,15.66h-10.61
			l3.21-15.23c0.53-2.51,0.26-4.34-2.53-4.34c-2.61,0-4.4,1.83-5.3,6.18l-2.81,13.38h-10.58l7.82-36.94H279.73z"/>
		<path class="st1" d="M307.68,40.35c-0.02,0.21-0.04,0.61-0.04,0.83c0,2.31,1.18,4.04,4.01,4.04c2.41,0,3.51-0.78,4.33-2.17h10.22
			c-1.68,4.52-6.12,8.87-15.44,8.87c-10.03,0-13.46-5.8-13.46-11.96c0-7.51,5.15-15.66,16.79-15.66c9.53,0,13.63,5.05,13.64,11.36
			c0,1.79-0.22,3.2-0.65,4.69H307.68z M317.77,34.82c0.05-0.29,0.07-0.62,0.07-0.89c0-2.13-1.35-3.35-3.87-3.35
			c-2.77,0-4.48,1.69-5.07,4.24H317.77z"/>
		<path class="st1" d="M333.09,33.18c0.71-3.34,1.34-6.16,1.64-8.18h10.06c-0.08,1.05-0.31,3.08-0.7,4.89
			c2.07-3.63,4.96-5.52,9.91-5.49l-2.28,9.69c-4.94-0.14-8.53,1.36-9.98,8.4l-1.81,8.72h-10.64L333.09,33.18z"/>
		<path class="st1" d="M403.09,14.27l-6.23,29.39c-0.62,2.98-1.09,5.44-1.45,7.55h-10.38c0.05-0.64,0.11-1.55,0.28-2.33
			c-1.83,1.88-4.08,3.03-8.22,3.03c-6.29,0-9.95-4.75-9.95-11.32c0-8.33,5.56-16.22,15.04-16.29c4.25-0.02,6.64,1.43,7.6,2.68
			l2.69-12.71H403.09z M377.93,40.28c0,2.7,1.35,4.45,3.81,4.45c3.45,0,5.22-2.65,6.01-6.43c0.88-4.33,0.03-6.88-3.67-6.88
			C379.98,31.42,377.93,36.5,377.93,40.28z"/>
		<path class="st1" d="M412.98,40.35c-0.02,0.21-0.04,0.61-0.04,0.83c0,2.31,1.18,4.04,4.01,4.04c2.41,0,3.51-0.78,4.33-2.17h10.22
			c-1.68,4.52-6.12,8.87-15.45,8.87c-10.03,0-13.46-5.8-13.46-11.96c0-7.51,5.15-15.66,16.79-15.66c9.53,0,13.63,5.05,13.65,11.36
			c0,1.79-0.22,3.2-0.65,4.69H412.98z M423.07,34.82c0.05-0.29,0.07-0.62,0.07-0.89c0-2.13-1.35-3.35-3.87-3.35
			c-2.76,0-4.47,1.69-5.07,4.24H423.07z"/>
		<path class="st1" d="M444.68,42.95c0.25,1.55,1.35,2.7,3.99,2.7c1.47,0,3.18-0.38,3.18-1.84c0-1.26-1.13-1.84-4.57-2.58
			c-8.08-1.75-9.91-4.43-9.91-7.82c0-5.18,4.45-9.12,12.89-9.12c10.14,0,13.31,4.8,13.43,8.68h-9.6c-0.11-1.34-1.04-2.57-3.57-2.57
			c-1.14,0-2.68,0.26-2.68,1.64c0,1.09,1.11,1.62,4.31,2.35c8.29,1.87,10.39,4.53,10.39,8.27c0,6.08-5.53,9.24-14.06,9.24
			c-8.42,0-13.19-3.42-13.44-8.96H444.68z"/>
		<path class="st1" d="M470.69,25h10.58l-5.55,26.21h-10.58L470.69,25z M472.9,14.27h10.62l-1.49,7.1h-10.63L472.9,14.27z"/>
		<path class="st1" d="M511.61,48.7c-2.02,9.55-6.77,13.73-17.48,13.73c-11.8,0-13.5-5.87-13.55-9.41h10.24
			c0.2,1.22,0.8,2.75,4.11,2.75c3.68,0,4.95-2.12,5.93-6l0.4-1.6c-1.97,1.97-4.13,2.96-8.05,2.96c-6.34,0-10.18-4.42-10.18-10.93
			c0-7.74,5.36-15.89,14.53-15.89c4.21,0,6.78,1.41,8,3.31c0.29-0.9,0.63-1.99,0.87-2.61h10.34c-0.54,2.13-1.14,4.69-1.74,7.58
			L511.61,48.7z M494.09,39.65c0,2.89,1.17,4.43,3.88,4.43c3.23,0,4.9-2.55,5.66-6.12c0.81-3.81-0.17-6.56-3.51-6.56
			C496.15,31.41,494.09,36.32,494.09,39.65z"/>
		<path class="st1" d="M521.05,32.2c0.7-3.38,1.11-5.47,1.44-7.2h10.37c-0.03,0.51-0.23,2.09-0.36,2.85
			c1.68-1.69,4.25-3.55,8.92-3.55c6.08,0,9.18,3.66,7.65,10.98l-3.37,15.94h-10.61l3.19-15.19c0.51-2.52,0.26-4.38-2.5-4.38
			c-2.7,0-4.44,1.8-5.32,6.04l-2.81,13.53h-10.58L521.05,32.2z"/>
		<path class="st1" d="M561.78,42.95c0.25,1.55,1.35,2.7,3.99,2.7c1.47,0,3.18-0.38,3.18-1.84c0-1.26-1.13-1.84-4.57-2.58
			c-8.08-1.75-9.91-4.43-9.91-7.82c0-5.18,4.45-9.12,12.89-9.12c10.14,0,13.31,4.8,13.43,8.68h-9.6c-0.11-1.34-1.04-2.57-3.57-2.57
			c-1.14,0-2.68,0.26-2.68,1.64c0,1.09,1.11,1.62,4.31,2.35c8.29,1.87,10.39,4.53,10.39,8.27c0,6.08-5.53,9.24-14.06,9.24
			c-8.42,0-13.19-3.42-13.44-8.96H561.78z"/>
	</g>
</g>
<g>
	<g>
		<path class="st1" d="M53.39,137.33c0.25,1.55,1.35,2.7,3.99,2.7c1.47,0,3.18-0.38,3.18-1.84c0-1.26-1.13-1.84-4.57-2.58
			c-8.08-1.75-9.91-4.43-9.91-7.82c0-5.18,4.45-9.12,12.89-9.12c10.14,0,13.31,4.8,13.43,8.68h-9.6c-0.11-1.34-1.04-2.57-3.57-2.57
			c-1.14,0-2.68,0.26-2.68,1.64c0,1.09,1.11,1.62,4.31,2.35c8.29,1.87,10.39,4.53,10.39,8.27c0,6.08-5.53,9.24-14.06,9.24
			c-8.42,0-13.19-3.42-13.44-8.96H53.39z"/>
		<path class="st1" d="M106.5,130.67c0,8.2-5.38,15.59-17.55,15.62c-9.93,0.03-13.88-5.54-13.88-11.7c0-8.41,5.65-15.91,17.33-15.91
			C101.26,118.68,106.5,123.51,106.5,130.67z M85.7,134.98c0,2.81,1.28,4.51,3.76,4.51c4.16,0,6.25-5.73,6.25-9.87
			c0-2.51-1.15-4.21-3.86-4.21C87.9,125.41,85.7,130.96,85.7,134.98z"/>
		<path class="st1" d="M112.16,126.98c0.78-3.79,1.19-5.92,1.49-7.6h10.16c-0.03,0.68-0.11,1.77-0.28,2.83
			c1.94-1.98,4.38-3.53,8.35-3.53c4.66,0,6.09,1.95,6.78,3.82c1.8-1.72,4.49-3.82,9.58-3.82c6.43,0,9.27,3.91,7.7,11.28l-3.3,15.64
			h-10.41l3.15-14.96c0.46-2.09,0.6-4.52-2.1-4.52c-2.47,0-3.84,1.81-4.59,5.39l-2.99,14.09h-10.5l3.15-14.96
			c0.43-1.95,0.77-4.6-2.05-4.6c-2.47,0-3.95,2.1-4.7,5.67l-2.92,13.9h-10.46L112.16,126.98z"/>
		<path class="st1" d="M170.39,134.73c-0.02,0.21-0.04,0.61-0.04,0.83c0,2.31,1.18,4.04,4.01,4.04c2.41,0,3.51-0.78,4.33-2.17h10.22
			c-1.68,4.52-6.12,8.87-15.45,8.87c-10.03,0-13.46-5.8-13.46-11.96c0-7.51,5.15-15.66,16.79-15.66c9.53,0,13.63,5.05,13.65,11.36
			c0,1.79-0.22,3.2-0.65,4.69H170.39z M180.47,129.2c0.05-0.29,0.07-0.62,0.07-0.89c0-2.13-1.35-3.35-3.87-3.35
			c-2.77,0-4.48,1.69-5.07,4.24H180.47z"/>
		<path class="st1" d="M237.69,130.67c0,8.2-5.38,15.59-17.55,15.62c-9.93,0.03-13.88-5.54-13.88-11.7
			c0-8.41,5.65-15.91,17.33-15.91C232.45,118.68,237.69,123.51,237.69,130.67z M216.9,134.98c0,2.81,1.28,4.51,3.76,4.51
			c4.16,0,6.25-5.73,6.25-9.87c0-2.51-1.15-4.21-3.86-4.21C219.1,125.41,216.9,130.96,216.9,134.98z"/>
		<path class="st1" d="M242.49,119.38h4.21l1.68-7.42h10.61l-1.68,7.42h5.11l-1.44,6.82h-5.09l-2.14,9.88
			c-0.4,1.84-0.24,2.77,1.93,2.77c0.67,0,1.74-0.05,2.33-0.17l-1.39,6.64c-1.87,0.42-3.98,0.6-6.02,0.6c-7.35,0-8.86-3.2-7.77-8.41
			l2.46-11.31h-4.22L242.49,119.38z"/>
		<path class="st1" d="M279.73,108.65l-2.81,13.25c1.41-1.26,3.87-3.23,8.44-3.23c6.62,0,9.41,4.17,7.93,11.25l-3.3,15.67h-10.61
			l3.21-15.23c0.53-2.51,0.26-4.34-2.53-4.34c-2.61,0-4.4,1.83-5.3,6.18l-2.81,13.38h-10.58l7.82-36.94H279.73z"/>
		<path class="st1" d="M307.68,134.73c-0.02,0.21-0.04,0.61-0.04,0.83c0,2.31,1.18,4.04,4.01,4.04c2.41,0,3.51-0.78,4.33-2.17h10.22
			c-1.68,4.52-6.12,8.87-15.44,8.87c-10.03,0-13.46-5.8-13.46-11.96c0-7.51,5.15-15.66,16.79-15.66c9.53,0,13.63,5.05,13.64,11.36
			c0,1.79-0.22,3.2-0.65,4.69H307.68z M317.77,129.2c0.05-0.29,0.07-0.62,0.07-0.89c0-2.13-1.35-3.35-3.87-3.35
			c-2.77,0-4.48,1.69-5.07,4.24H317.77z"/>
		<path class="st1" d="M333.09,127.55c0.71-3.34,1.34-6.16,1.64-8.18h10.06c-0.08,1.05-0.31,3.08-0.7,4.88
			c2.07-3.63,4.96-5.52,9.91-5.49l-2.28,9.69c-4.94-0.14-8.53,1.36-9.98,8.4l-1.81,8.72h-10.64L333.09,127.55z"/>
		<path class="st1" d="M403.09,108.65l-6.23,29.39c-0.62,2.98-1.09,5.44-1.45,7.55h-10.38c0.05-0.64,0.11-1.55,0.28-2.33
			c-1.83,1.88-4.08,3.03-8.22,3.03c-6.29,0-9.95-4.75-9.95-11.32c0-8.33,5.56-16.22,15.04-16.29c4.25-0.02,6.64,1.43,7.6,2.68
			l2.69-12.71H403.09z M377.93,134.66c0,2.7,1.35,4.45,3.81,4.45c3.45,0,5.22-2.65,6.01-6.43c0.88-4.33,0.03-6.88-3.67-6.88
			C379.98,125.8,377.93,130.88,377.93,134.66z"/>
		<path class="st1" d="M412.98,134.73c-0.02,0.21-0.04,0.61-0.04,0.83c0,2.31,1.18,4.04,4.01,4.04c2.41,0,3.51-0.78,4.33-2.17h10.22
			c-1.68,4.52-6.12,8.87-15.45,8.87c-10.03,0-13.46-5.8-13.46-11.96c0-7.51,5.15-15.66,16.79-15.66c9.53,0,13.63,5.05,13.65,11.36
			c0,1.79-0.22,3.2-0.65,4.69H412.98z M423.07,129.2c0.05-0.29,0.07-0.62,0.07-0.89c0-2.13-1.35-3.35-3.87-3.35
			c-2.76,0-4.47,1.69-5.07,4.24H423.07z"/>
		<path class="st1" d="M444.68,137.33c0.25,1.55,1.35,2.7,3.99,2.7c1.47,0,3.18-0.38,3.18-1.84c0-1.26-1.13-1.84-4.57-2.58
			c-8.08-1.75-9.91-4.43-9.91-7.82c0-5.18,4.45-9.12,12.89-9.12c10.14,0,13.31,4.8,13.43,8.68h-9.6c-0.11-1.34-1.04-2.57-3.57-2.57
			c-1.14,0-2.68,0.26-2.68,1.64c0,1.09,1.11,1.62,4.31,2.35c8.29,1.87,10.39,4.53,10.39,8.27c0,6.08-5.53,9.24-14.06,9.24
			c-8.42,0-13.19-3.42-13.44-8.96H444.68z"/>
		<path class="st1" d="M470.69,119.38h10.58l-5.55,26.21h-10.58L470.69,119.38z M472.9,108.65h10.62l-1.49,7.1h-10.63L472.9,108.65z
			"/>
		<path class="st1" d="M511.61,143.08c-2.02,9.55-6.77,13.73-17.48,13.73c-11.8,0-13.5-5.87-13.55-9.41h10.24
			c0.2,1.22,0.8,2.75,4.11,2.75c3.68,0,4.95-2.12,5.93-6l0.4-1.6c-1.97,1.97-4.13,2.96-8.05,2.96c-6.34,0-10.18-4.42-10.18-10.93
			c0-7.74,5.36-15.89,14.53-15.89c4.21,0,6.78,1.41,8,3.31c0.29-0.9,0.63-1.99,0.87-2.61h10.34c-0.54,2.13-1.14,4.68-1.74,7.58
			L511.61,143.08z M494.09,134.03c0,2.89,1.17,4.43,3.88,4.43c3.23,0,4.9-2.55,5.66-6.12c0.81-3.81-0.17-6.56-3.51-6.56
			C496.15,125.78,494.09,130.7,494.09,134.03z"/>
		<path class="st1" d="M521.05,126.58c0.7-3.38,1.11-5.47,1.44-7.2h10.37c-0.03,0.51-0.23,2.09-0.36,2.85
			c1.68-1.68,4.25-3.55,8.92-3.55c6.08,0,9.18,3.66,7.65,10.98l-3.37,15.94h-10.61l3.19-15.19c0.51-2.52,0.26-4.38-2.5-4.38
			c-2.7,0-4.44,1.8-5.32,6.04l-2.81,13.53h-10.58L521.05,126.58z"/>
		<path class="st1" d="M561.78,137.33c0.25,1.55,1.35,2.7,3.99,2.7c1.47,0,3.18-0.38,3.18-1.84c0-1.26-1.13-1.84-4.57-2.58
			c-8.08-1.75-9.91-4.43-9.91-7.82c0-5.18,4.45-9.12,12.89-9.12c10.14,0,13.31,4.8,13.43,8.68h-9.6c-0.11-1.34-1.04-2.57-3.57-2.57
			c-1.14,0-2.68,0.26-2.68,1.64c0,1.09,1.11,1.62,4.31,2.35c8.29,1.87,10.39,4.53,10.39,8.27c0,6.08-5.53,9.24-14.06,9.24
			c-8.42,0-13.19-3.42-13.44-8.96H561.78z"/>
	</g>
</g>
<g>
	<g>
		<path class="st1" d="M53.39,88.11c0.25,1.55,1.35,2.7,3.99,2.7c1.47,0,3.18-0.38,3.18-1.84c0-1.26-1.13-1.84-4.57-2.58
			c-8.08-1.75-9.91-4.43-9.91-7.82c0-5.18,4.45-9.12,12.89-9.12c10.14,0,13.31,4.8,13.43,8.68h-9.6c-0.11-1.34-1.04-2.57-3.57-2.57
			c-1.14,0-2.68,0.26-2.68,1.64c0,1.09,1.11,1.62,4.31,2.35c8.29,1.87,10.39,4.53,10.39,8.27c0,6.08-5.53,9.24-14.06,9.24
			c-8.42,0-13.19-3.42-13.44-8.96H53.39z"/>
		<path class="st1" d="M106.5,81.45c0,8.2-5.38,15.59-17.55,15.62c-9.93,0.03-13.88-5.54-13.88-11.7c0-8.41,5.65-15.91,17.33-15.91
			C101.26,69.46,106.5,74.29,106.5,81.45z M85.7,85.76c0,2.81,1.28,4.51,3.76,4.51c4.16,0,6.25-5.73,6.25-9.87
			c0-2.51-1.15-4.21-3.86-4.21C87.9,76.19,85.7,81.75,85.7,85.76z"/>
		<path class="st1" d="M112.16,77.76c0.78-3.78,1.19-5.92,1.49-7.6h10.16c-0.03,0.68-0.11,1.77-0.28,2.83
			c1.94-1.98,4.38-3.53,8.35-3.53c4.66,0,6.09,1.95,6.78,3.82c1.8-1.72,4.49-3.82,9.58-3.82c6.43,0,9.27,3.91,7.7,11.28l-3.3,15.64
			h-10.41l3.15-14.96c0.46-2.09,0.6-4.52-2.1-4.52c-2.47,0-3.84,1.81-4.59,5.39l-2.99,14.09h-10.5l3.15-14.96
			c0.43-1.95,0.77-4.6-2.05-4.6c-2.47,0-3.95,2.1-4.7,5.67l-2.92,13.9h-10.46L112.16,77.76z"/>
		<path class="st1" d="M170.39,85.51c-0.02,0.21-0.04,0.61-0.04,0.83c0,2.31,1.18,4.04,4.01,4.04c2.41,0,3.51-0.78,4.33-2.17h10.22
			c-1.68,4.52-6.12,8.87-15.45,8.87c-10.03,0-13.46-5.8-13.46-11.96c0-7.51,5.15-15.66,16.79-15.66c9.53,0,13.63,5.05,13.65,11.36
			c0,1.79-0.22,3.2-0.65,4.69H170.39z M180.47,79.98c0.05-0.29,0.07-0.62,0.07-0.89c0-2.13-1.35-3.35-3.87-3.35
			c-2.77,0-4.48,1.69-5.07,4.24H180.47z"/>
		<path class="st1" d="M237.69,81.45c0,8.2-5.38,15.59-17.55,15.62c-9.93,0.03-13.88-5.54-13.88-11.7c0-8.41,5.65-15.91,17.33-15.91
			C232.45,69.46,237.69,74.29,237.69,81.45z M216.9,85.76c0,2.81,1.28,4.51,3.76,4.51c4.16,0,6.25-5.73,6.25-9.87
			c0-2.51-1.15-4.21-3.86-4.21C219.1,76.19,216.9,81.75,216.9,85.76z"/>
		<path class="st1" d="M242.49,70.16h4.21l1.68-7.42h10.61l-1.68,7.42h5.11l-1.44,6.82h-5.09l-2.14,9.88
			c-0.4,1.84-0.24,2.77,1.93,2.77c0.67,0,1.74-0.05,2.33-0.17l-1.39,6.64c-1.87,0.42-3.98,0.6-6.02,0.6c-7.35,0-8.86-3.2-7.77-8.41
			l2.46-11.31h-4.22L242.49,70.16z"/>
		<path class="st1" d="M279.73,59.43l-2.81,13.25c1.41-1.26,3.87-3.23,8.44-3.23c6.62,0,9.41,4.17,7.93,11.25l-3.3,15.66h-10.61
			l3.21-15.23c0.53-2.51,0.26-4.34-2.53-4.34c-2.61,0-4.4,1.83-5.3,6.18l-2.81,13.38h-10.58l7.82-36.94H279.73z"/>
		<path class="st1" d="M307.68,85.51c-0.02,0.21-0.04,0.61-0.04,0.83c0,2.31,1.18,4.04,4.01,4.04c2.41,0,3.51-0.78,4.33-2.17h10.22
			c-1.68,4.52-6.12,8.87-15.44,8.87c-10.03,0-13.46-5.8-13.46-11.96c0-7.51,5.15-15.66,16.79-15.66c9.53,0,13.63,5.05,13.64,11.36
			c0,1.79-0.22,3.2-0.65,4.69H307.68z M317.77,79.98c0.05-0.29,0.07-0.62,0.07-0.89c0-2.13-1.35-3.35-3.87-3.35
			c-2.77,0-4.48,1.69-5.07,4.24H317.77z"/>
		<path class="st1" d="M333.09,78.34c0.71-3.34,1.34-6.16,1.64-8.18h10.06c-0.08,1.05-0.31,3.08-0.7,4.89
			c2.07-3.63,4.96-5.52,9.91-5.49l-2.28,9.69c-4.94-0.14-8.53,1.36-9.98,8.4l-1.81,8.72h-10.64L333.09,78.34z"/>
		<path class="st1" d="M403.09,59.43l-6.23,29.39c-0.62,2.98-1.09,5.44-1.45,7.55h-10.38c0.05-0.64,0.11-1.55,0.28-2.33
			c-1.83,1.88-4.08,3.03-8.22,3.03c-6.29,0-9.95-4.75-9.95-11.32c0-8.33,5.56-16.22,15.04-16.29c4.25-0.02,6.64,1.43,7.6,2.68
			l2.69-12.71H403.09z M377.93,85.44c0,2.7,1.35,4.45,3.81,4.45c3.45,0,5.22-2.65,6.01-6.43c0.88-4.33,0.03-6.88-3.67-6.88
			C379.98,76.58,377.93,81.66,377.93,85.44z"/>
		<path class="st1" d="M412.98,85.51c-0.02,0.21-0.04,0.61-0.04,0.83c0,2.31,1.18,4.04,4.01,4.04c2.41,0,3.51-0.78,4.33-2.17h10.22
			c-1.68,4.52-6.12,8.87-15.45,8.87c-10.03,0-13.46-5.8-13.46-11.96c0-7.51,5.15-15.66,16.79-15.66c9.53,0,13.63,5.05,13.65,11.36
			c0,1.79-0.22,3.2-0.65,4.69H412.98z M423.07,79.98c0.05-0.29,0.07-0.62,0.07-0.89c0-2.13-1.35-3.35-3.87-3.35
			c-2.76,0-4.47,1.69-5.07,4.24H423.07z"/>
		<path class="st1" d="M444.68,88.11c0.25,1.55,1.35,2.7,3.99,2.7c1.47,0,3.18-0.38,3.18-1.84c0-1.26-1.13-1.84-4.57-2.58
			c-8.08-1.75-9.91-4.43-9.91-7.82c0-5.18,4.45-9.12,12.89-9.12c10.14,0,13.31,4.8,13.43,8.68h-9.6c-0.11-1.34-1.04-2.57-3.57-2.57
			c-1.14,0-2.68,0.26-2.68,1.64c0,1.09,1.11,1.62,4.31,2.35c8.29,1.87,10.39,4.53,10.39,8.27c0,6.08-5.53,9.24-14.06,9.24
			c-8.42,0-13.19-3.42-13.44-8.96H444.68z"/>
		<path class="st1" d="M470.69,70.16h10.58l-5.55,26.21h-10.58L470.69,70.16z M472.9,59.43h10.62l-1.49,7.1h-10.63L472.9,59.43z"/>
		<path class="st1" d="M511.61,93.86c-2.02,9.55-6.77,13.73-17.48,13.73c-11.8,0-13.5-5.87-13.55-9.41h10.24
			c0.2,1.22,0.8,2.75,4.11,2.75c3.68,0,4.95-2.12,5.93-6l0.4-1.6c-1.97,1.97-4.13,2.96-8.05,2.96c-6.34,0-10.18-4.42-10.18-10.93
			c0-7.74,5.36-15.89,14.53-15.89c4.21,0,6.78,1.41,8,3.31c0.29-0.9,0.63-1.99,0.87-2.61h10.34c-0.54,2.13-1.14,4.69-1.74,7.58
			L511.61,93.86z M494.09,84.81c0,2.89,1.17,4.43,3.88,4.43c3.23,0,4.9-2.55,5.66-6.12c0.81-3.81-0.17-6.56-3.51-6.56
			C496.15,76.57,494.09,81.48,494.09,84.81z"/>
		<path class="st1" d="M521.05,77.36c0.7-3.38,1.11-5.47,1.44-7.2h10.37c-0.03,0.51-0.23,2.09-0.36,2.85
			c1.68-1.69,4.25-3.55,8.92-3.55c6.08,0,9.18,3.66,7.65,10.98l-3.37,15.94h-10.61l3.19-15.19c0.51-2.52,0.26-4.38-2.5-4.38
			c-2.7,0-4.44,1.8-5.32,6.04l-2.81,13.53h-10.58L521.05,77.36z"/>
		<path class="st1" d="M561.78,88.11c0.25,1.55,1.35,2.7,3.99,2.7c1.47,0,3.18-0.38,3.18-1.84c0-1.26-1.13-1.84-4.57-2.58
			c-8.08-1.75-9.91-4.43-9.91-7.82c0-5.18,4.45-9.12,12.89-9.12c10.14,0,13.31,4.8,13.43,8.68h-9.6c-0.11-1.34-1.04-2.57-3.57-2.57
			c-1.14,0-2.68,0.26-2.68,1.64c0,1.09,1.11,1.62,4.31,2.35c8.29,1.87,10.39,4.53,10.39,8.27c0,6.08-5.53,9.24-14.06,9.24
			c-8.42,0-13.19-3.42-13.44-8.96H561.78z"/>
	</g>
</g>
<g>
	<g>
		<path class="st2" d="M53.39,185.48c0.25,1.55,1.35,2.7,3.99,2.7c1.47,0,3.18-0.38,3.18-1.84c0-1.26-1.13-1.84-4.57-2.58
			c-8.08-1.75-9.91-4.43-9.91-7.82c0-5.18,4.45-9.12,12.89-9.12c10.14,0,13.31,4.8,13.43,8.68h-9.6c-0.11-1.34-1.04-2.57-3.57-2.57
			c-1.14,0-2.68,0.26-2.68,1.64c0,1.09,1.11,1.62,4.31,2.35c8.29,1.87,10.39,4.53,10.39,8.27c0,6.08-5.53,9.24-14.06,9.24
			c-8.42,0-13.19-3.42-13.44-8.96H53.39z"/>
		<path class="st2" d="M106.5,178.82c0,8.2-5.38,15.59-17.55,15.62c-9.93,0.03-13.88-5.54-13.88-11.7c0-8.41,5.65-15.91,17.33-15.91
			C101.26,166.83,106.5,171.66,106.5,178.82z M85.7,183.13c0,2.81,1.28,4.51,3.76,4.51c4.16,0,6.25-5.73,6.25-9.87
			c0-2.51-1.15-4.21-3.86-4.21C87.9,173.56,85.7,179.12,85.7,183.13z"/>
		<path class="st2" d="M112.16,175.13c0.78-3.78,1.19-5.92,1.49-7.6h10.16c-0.03,0.68-0.11,1.77-0.28,2.83
			c1.94-1.98,4.38-3.53,8.35-3.53c4.66,0,6.09,1.95,6.78,3.82c1.8-1.72,4.49-3.82,9.58-3.82c6.43,0,9.27,3.91,7.7,11.28l-3.3,15.64
			h-10.41l3.15-14.96c0.46-2.09,0.6-4.52-2.1-4.52c-2.47,0-3.84,1.81-4.59,5.39l-2.99,14.09h-10.5l3.15-14.96
			c0.43-1.95,0.77-4.6-2.05-4.6c-2.47,0-3.95,2.1-4.7,5.67l-2.92,13.9h-10.46L112.16,175.13z"/>
		<path class="st2" d="M170.39,182.88c-0.02,0.21-0.04,0.61-0.04,0.83c0,2.31,1.18,4.04,4.01,4.04c2.41,0,3.51-0.78,4.33-2.17h10.22
			c-1.68,4.52-6.12,8.87-15.45,8.87c-10.03,0-13.46-5.8-13.46-11.96c0-7.51,5.15-15.66,16.79-15.66c9.53,0,13.63,5.05,13.65,11.36
			c0,1.79-0.22,3.2-0.65,4.69H170.39z M180.47,177.35c0.05-0.29,0.07-0.62,0.07-0.89c0-2.13-1.35-3.35-3.87-3.35
			c-2.77,0-4.48,1.69-5.07,4.24H180.47z"/>
		<path class="st2" d="M237.69,178.82c0,8.2-5.38,15.59-17.55,15.62c-9.93,0.03-13.88-5.54-13.88-11.7
			c0-8.41,5.65-15.91,17.33-15.91C232.45,166.83,237.69,171.66,237.69,178.82z M216.9,183.13c0,2.81,1.28,4.51,3.76,4.51
			c4.16,0,6.25-5.73,6.25-9.87c0-2.51-1.15-4.21-3.86-4.21C219.1,173.56,216.9,179.12,216.9,183.13z"/>
		<path class="st2" d="M242.49,167.53h4.21l1.68-7.42h10.61l-1.68,7.42h5.11l-1.44,6.82h-5.09l-2.14,9.88
			c-0.4,1.84-0.24,2.77,1.93,2.77c0.67,0,1.74-0.05,2.33-0.17l-1.39,6.64c-1.87,0.42-3.98,0.6-6.02,0.6c-7.35,0-8.86-3.2-7.77-8.41
			l2.46-11.31h-4.22L242.49,167.53z"/>
		<path class="st2" d="M279.73,156.8l-2.81,13.25c1.41-1.26,3.87-3.23,8.44-3.23c6.62,0,9.41,4.17,7.93,11.25l-3.3,15.66h-10.61
			l3.21-15.23c0.53-2.51,0.26-4.34-2.53-4.34c-2.61,0-4.4,1.83-5.3,6.18l-2.81,13.38h-10.58l7.82-36.94H279.73z"/>
		<path class="st2" d="M307.68,182.88c-0.02,0.21-0.04,0.61-0.04,0.83c0,2.31,1.18,4.04,4.01,4.04c2.41,0,3.51-0.78,4.33-2.17h10.22
			c-1.68,4.52-6.12,8.87-15.44,8.87c-10.03,0-13.46-5.8-13.46-11.96c0-7.51,5.15-15.66,16.79-15.66c9.53,0,13.63,5.05,13.64,11.36
			c0,1.79-0.22,3.2-0.65,4.69H307.68z M317.77,177.35c0.05-0.29,0.07-0.62,0.07-0.89c0-2.13-1.35-3.35-3.87-3.35
			c-2.77,0-4.48,1.69-5.07,4.24H317.77z"/>
		<path class="st2" d="M333.09,175.71c0.71-3.34,1.34-6.16,1.64-8.18h10.06c-0.08,1.05-0.31,3.08-0.7,4.89
			c2.07-3.63,4.96-5.52,9.91-5.49l-2.28,9.69c-4.94-0.14-8.53,1.36-9.98,8.4l-1.81,8.72h-10.64L333.09,175.71z"/>
		<path class="st2" d="M403.09,156.8l-6.23,29.39c-0.62,2.98-1.09,5.44-1.45,7.55h-10.38c0.05-0.64,0.11-1.55,0.28-2.33
			c-1.83,1.88-4.08,3.03-8.22,3.03c-6.29,0-9.95-4.75-9.95-11.32c0-8.33,5.56-16.22,15.04-16.29c4.25-0.02,6.64,1.43,7.6,2.68
			l2.69-12.71H403.09z M377.93,182.81c0,2.7,1.35,4.45,3.81,4.45c3.45,0,5.22-2.65,6.01-6.43c0.88-4.33,0.03-6.88-3.67-6.88
			C379.98,173.95,377.93,179.03,377.93,182.81z"/>
		<path class="st2" d="M412.98,182.88c-0.02,0.21-0.04,0.61-0.04,0.83c0,2.31,1.18,4.04,4.01,4.04c2.41,0,3.51-0.78,4.33-2.17h10.22
			c-1.68,4.52-6.12,8.87-15.45,8.87c-10.03,0-13.46-5.8-13.46-11.96c0-7.51,5.15-15.66,16.79-15.66c9.53,0,13.63,5.05,13.65,11.36
			c0,1.79-0.22,3.2-0.65,4.69H412.98z M423.07,177.35c0.05-0.29,0.07-0.62,0.07-0.89c0-2.13-1.35-3.35-3.87-3.35
			c-2.76,0-4.47,1.69-5.07,4.24H423.07z"/>
		<path class="st2" d="M444.68,185.48c0.25,1.55,1.35,2.7,3.99,2.7c1.47,0,3.18-0.38,3.18-1.84c0-1.26-1.13-1.84-4.57-2.58
			c-8.08-1.75-9.91-4.43-9.91-7.82c0-5.18,4.45-9.12,12.89-9.12c10.14,0,13.31,4.8,13.43,8.68h-9.6c-0.11-1.34-1.04-2.57-3.57-2.57
			c-1.14,0-2.68,0.26-2.68,1.64c0,1.09,1.11,1.62,4.31,2.35c8.29,1.87,10.39,4.53,10.39,8.27c0,6.08-5.53,9.24-14.06,9.24
			c-8.42,0-13.19-3.42-13.44-8.96H444.68z"/>
		<path class="st2" d="M470.69,167.53h10.58l-5.55,26.21h-10.58L470.69,167.53z M472.9,156.8h10.62l-1.49,7.1h-10.63L472.9,156.8z"
			/>
		<path class="st2" d="M511.61,191.23c-2.02,9.55-6.77,13.73-17.48,13.73c-11.8,0-13.5-5.87-13.55-9.41h10.24
			c0.2,1.22,0.8,2.75,4.11,2.75c3.68,0,4.95-2.12,5.93-6l0.4-1.6c-1.97,1.97-4.13,2.96-8.05,2.96c-6.34,0-10.18-4.42-10.18-10.93
			c0-7.74,5.36-15.89,14.53-15.89c4.21,0,6.78,1.41,8,3.31c0.29-0.9,0.63-1.99,0.87-2.61h10.34c-0.54,2.13-1.14,4.69-1.74,7.58
			L511.61,191.23z M494.09,182.18c0,2.89,1.17,4.43,3.88,4.43c3.23,0,4.9-2.55,5.66-6.12c0.81-3.81-0.17-6.56-3.51-6.56
			C496.15,173.94,494.09,178.85,494.09,182.18z"/>
		<path class="st2" d="M521.05,174.73c0.7-3.38,1.11-5.47,1.44-7.2h10.37c-0.03,0.51-0.23,2.09-0.36,2.85
			c1.68-1.69,4.25-3.55,8.92-3.55c6.08,0,9.18,3.66,7.65,10.98l-3.37,15.94h-10.61l3.19-15.19c0.51-2.52,0.26-4.38-2.5-4.38
			c-2.7,0-4.44,1.8-5.32,6.04l-2.81,13.53h-10.58L521.05,174.73z"/>
		<path class="st2" d="M561.78,185.48c0.25,1.55,1.35,2.7,3.99,2.7c1.47,0,3.18-0.38,3.18-1.84c0-1.26-1.13-1.84-4.57-2.58
			c-8.08-1.75-9.91-4.43-9.91-7.82c0-5.18,4.45-9.12,12.89-9.12c10.14,0,13.31,4.8,13.43,8.68h-9.6c-0.11-1.34-1.04-2.57-3.57-2.57
			c-1.14,0-2.68,0.26-2.68,1.64c0,1.09,1.11,1.62,4.31,2.35c8.29,1.87,10.39,4.53,10.39,8.27c0,6.08-5.53,9.24-14.06,9.24
			c-8.42,0-13.19-3.42-13.44-8.96H561.78z"/>
	</g>
</g>
<g>
	<g>
		<path class="st1" d="M53.39,233.64c0.25,1.55,1.35,2.7,3.99,2.7c1.47,0,3.18-0.38,3.18-1.84c0-1.26-1.13-1.84-4.57-2.58
			c-8.08-1.75-9.91-4.43-9.91-7.82c0-5.18,4.45-9.12,12.89-9.12c10.14,0,13.31,4.8,13.43,8.68h-9.6c-0.11-1.34-1.04-2.57-3.57-2.57
			c-1.14,0-2.68,0.26-2.68,1.64c0,1.09,1.11,1.62,4.31,2.35c8.29,1.87,10.39,4.53,10.39,8.27c0,6.08-5.53,9.24-14.06,9.24
			c-8.42,0-13.19-3.42-13.44-8.96H53.39z"/>
		<path class="st1" d="M106.5,226.97c0,8.2-5.38,15.59-17.55,15.62c-9.93,0.03-13.88-5.54-13.88-11.7c0-8.41,5.65-15.91,17.33-15.91
			C101.26,214.98,106.5,219.81,106.5,226.97z M85.7,231.28c0,2.81,1.28,4.51,3.76,4.51c4.16,0,6.25-5.73,6.25-9.87
			c0-2.51-1.15-4.21-3.86-4.21C87.9,221.72,85.7,227.27,85.7,231.28z"/>
		<path class="st1" d="M112.16,223.28c0.78-3.79,1.19-5.92,1.49-7.6h10.16c-0.03,0.68-0.11,1.77-0.28,2.83
			c1.94-1.98,4.38-3.53,8.35-3.53c4.66,0,6.09,1.95,6.78,3.82c1.8-1.72,4.49-3.82,9.58-3.82c6.43,0,9.27,3.91,7.7,11.28l-3.3,15.64
			h-10.41l3.15-14.96c0.46-2.09,0.6-4.52-2.1-4.52c-2.47,0-3.84,1.81-4.59,5.39l-2.99,14.09h-10.5l3.15-14.96
			c0.43-1.95,0.77-4.6-2.05-4.6c-2.47,0-3.95,2.1-4.7,5.67l-2.92,13.9h-10.46L112.16,223.28z"/>
		<path class="st1" d="M170.39,231.04c-0.02,0.21-0.04,0.61-0.04,0.83c0,2.31,1.18,4.04,4.01,4.04c2.41,0,3.51-0.78,4.33-2.17h10.22
			c-1.68,4.52-6.12,8.87-15.45,8.87c-10.03,0-13.46-5.8-13.46-11.96c0-7.51,5.15-15.66,16.79-15.66c9.53,0,13.63,5.05,13.65,11.36
			c0,1.79-0.22,3.2-0.65,4.69H170.39z M180.47,225.51c0.05-0.29,0.07-0.62,0.07-0.89c0-2.13-1.35-3.35-3.87-3.35
			c-2.77,0-4.48,1.69-5.07,4.24H180.47z"/>
		<path class="st1" d="M237.69,226.97c0,8.2-5.38,15.59-17.55,15.62c-9.93,0.03-13.88-5.54-13.88-11.7
			c0-8.41,5.65-15.91,17.33-15.91C232.45,214.98,237.69,219.81,237.69,226.97z M216.9,231.28c0,2.81,1.28,4.51,3.76,4.51
			c4.16,0,6.25-5.73,6.25-9.87c0-2.51-1.15-4.21-3.86-4.21C219.1,221.72,216.9,227.27,216.9,231.28z"/>
		<path class="st1" d="M242.49,215.68h4.21l1.68-7.42h10.61l-1.68,7.42h5.11l-1.44,6.82h-5.09l-2.14,9.88
			c-0.4,1.84-0.24,2.77,1.93,2.77c0.67,0,1.74-0.05,2.33-0.17l-1.39,6.64c-1.87,0.42-3.98,0.6-6.02,0.6c-7.35,0-8.86-3.2-7.77-8.41
			l2.46-11.31h-4.22L242.49,215.68z"/>
		<path class="st1" d="M279.73,204.96l-2.81,13.25c1.41-1.26,3.87-3.23,8.44-3.23c6.62,0,9.41,4.17,7.93,11.25l-3.3,15.67h-10.61
			l3.21-15.23c0.53-2.51,0.26-4.34-2.53-4.34c-2.61,0-4.4,1.83-5.3,6.18l-2.81,13.38h-10.58l7.82-36.94H279.73z"/>
		<path class="st1" d="M307.68,231.04c-0.02,0.21-0.04,0.61-0.04,0.83c0,2.31,1.18,4.04,4.01,4.04c2.41,0,3.51-0.78,4.33-2.17h10.22
			c-1.68,4.52-6.12,8.87-15.44,8.87c-10.03,0-13.46-5.8-13.46-11.96c0-7.51,5.15-15.66,16.79-15.66c9.53,0,13.63,5.05,13.64,11.36
			c0,1.79-0.22,3.2-0.65,4.69H307.68z M317.77,225.51c0.05-0.29,0.07-0.62,0.07-0.89c0-2.13-1.35-3.35-3.87-3.35
			c-2.77,0-4.48,1.69-5.07,4.24H317.77z"/>
		<path class="st1" d="M333.09,223.86c0.71-3.34,1.34-6.16,1.64-8.18h10.06c-0.08,1.05-0.31,3.08-0.7,4.88
			c2.07-3.63,4.96-5.52,9.91-5.49l-2.28,9.69c-4.94-0.14-8.53,1.36-9.98,8.4l-1.81,8.72h-10.64L333.09,223.86z"/>
		<path class="st1" d="M403.09,204.96l-6.23,29.39c-0.62,2.98-1.09,5.44-1.45,7.55h-10.38c0.05-0.64,0.11-1.55,0.28-2.33
			c-1.83,1.88-4.08,3.03-8.22,3.03c-6.29,0-9.95-4.75-9.95-11.32c0-8.33,5.56-16.22,15.04-16.29c4.25-0.02,6.64,1.43,7.6,2.68
			l2.69-12.71H403.09z M377.93,230.96c0,2.7,1.35,4.45,3.81,4.45c3.45,0,5.22-2.65,6.01-6.43c0.88-4.33,0.03-6.88-3.67-6.88
			C379.98,222.1,377.93,227.18,377.93,230.96z"/>
		<path class="st1" d="M412.98,231.04c-0.02,0.21-0.04,0.61-0.04,0.83c0,2.31,1.18,4.04,4.01,4.04c2.41,0,3.51-0.78,4.33-2.17h10.22
			c-1.68,4.52-6.12,8.87-15.45,8.87c-10.03,0-13.46-5.8-13.46-11.96c0-7.51,5.15-15.66,16.79-15.66c9.53,0,13.63,5.05,13.65,11.36
			c0,1.79-0.22,3.2-0.65,4.69H412.98z M423.07,225.51c0.05-0.29,0.07-0.62,0.07-0.89c0-2.13-1.35-3.35-3.87-3.35
			c-2.76,0-4.47,1.69-5.07,4.24H423.07z"/>
		<path class="st1" d="M444.68,233.64c0.25,1.55,1.35,2.7,3.99,2.7c1.47,0,3.18-0.38,3.18-1.84c0-1.26-1.13-1.84-4.57-2.58
			c-8.08-1.75-9.91-4.43-9.91-7.82c0-5.18,4.45-9.12,12.89-9.12c10.14,0,13.31,4.8,13.43,8.68h-9.6c-0.11-1.34-1.04-2.57-3.57-2.57
			c-1.14,0-2.68,0.26-2.68,1.64c0,1.09,1.11,1.62,4.31,2.35c8.29,1.87,10.39,4.53,10.39,8.27c0,6.08-5.53,9.24-14.06,9.24
			c-8.42,0-13.19-3.42-13.44-8.96H444.68z"/>
		<path class="st1" d="M470.69,215.68h10.58l-5.55,26.21h-10.58L470.69,215.68z M472.9,204.96h10.62l-1.49,7.1h-10.63L472.9,204.96z
			"/>
		<path class="st1" d="M511.61,239.38c-2.02,9.55-6.77,13.73-17.48,13.73c-11.8,0-13.5-5.87-13.55-9.41h10.24
			c0.2,1.22,0.8,2.75,4.11,2.75c3.68,0,4.95-2.12,5.93-6l0.4-1.6c-1.97,1.97-4.13,2.96-8.05,2.96c-6.34,0-10.18-4.42-10.18-10.93
			c0-7.74,5.36-15.89,14.53-15.89c4.21,0,6.78,1.41,8,3.31c0.29-0.9,0.63-1.99,0.87-2.61h10.34c-0.54,2.13-1.14,4.68-1.74,7.58
			L511.61,239.38z M494.09,230.33c0,2.89,1.17,4.43,3.88,4.43c3.23,0,4.9-2.55,5.66-6.12c0.81-3.81-0.17-6.56-3.51-6.56
			C496.15,222.09,494.09,227.01,494.09,230.33z"/>
		<path class="st1" d="M521.05,222.88c0.7-3.38,1.11-5.47,1.44-7.2h10.37c-0.03,0.51-0.23,2.09-0.36,2.85
			c1.68-1.68,4.25-3.55,8.92-3.55c6.08,0,9.18,3.66,7.65,10.98l-3.37,15.94h-10.61l3.19-15.19c0.51-2.52,0.26-4.38-2.5-4.38
			c-2.7,0-4.44,1.8-5.32,6.04l-2.81,13.53h-10.58L521.05,222.88z"/>
		<path class="st1" d="M561.78,233.64c0.25,1.55,1.35,2.7,3.99,2.7c1.47,0,3.18-0.38,3.18-1.84c0-1.26-1.13-1.84-4.57-2.58
			c-8.08-1.75-9.91-4.43-9.91-7.82c0-5.18,4.45-9.12,12.89-9.12c10.14,0,13.31,4.8,13.43,8.68h-9.6c-0.11-1.34-1.04-2.57-3.57-2.57
			c-1.14,0-2.68,0.26-2.68,1.64c0,1.09,1.11,1.62,4.31,2.35c8.29,1.87,10.39,4.53,10.39,8.27c0,6.08-5.53,9.24-14.06,9.24
			c-8.42,0-13.19-3.42-13.44-8.96H561.78z"/>
	</g>
</g>
<g>
	<g>
		<path class="st1" d="M53.39,282.86c0.25,1.55,1.35,2.7,3.99,2.7c1.47,0,3.18-0.38,3.18-1.84c0-1.26-1.13-1.84-4.57-2.58
			c-8.08-1.75-9.91-4.43-9.91-7.82c0-5.18,4.45-9.12,12.89-9.12c10.14,0,13.31,4.8,13.43,8.68h-9.6c-0.11-1.34-1.04-2.57-3.57-2.57
			c-1.14,0-2.68,0.26-2.68,1.64c0,1.09,1.11,1.62,4.31,2.35c8.29,1.87,10.39,4.53,10.39,8.27c0,6.08-5.53,9.24-14.06,9.24
			c-8.42,0-13.19-3.42-13.44-8.96H53.39z"/>
		<path class="st1" d="M106.5,276.19c0,8.2-5.38,15.59-17.55,15.62c-9.93,0.03-13.88-5.54-13.88-11.7c0-8.41,5.65-15.91,17.33-15.91
			C101.26,264.2,106.5,269.03,106.5,276.19z M85.7,280.5c0,2.81,1.28,4.51,3.76,4.51c4.16,0,6.25-5.73,6.25-9.87
			c0-2.51-1.15-4.21-3.86-4.21C87.9,270.94,85.7,276.49,85.7,280.5z"/>
		<path class="st1" d="M112.16,272.5c0.78-3.78,1.19-5.92,1.49-7.6h10.16c-0.03,0.68-0.11,1.77-0.28,2.83
			c1.94-1.98,4.38-3.53,8.35-3.53c4.66,0,6.09,1.95,6.78,3.82c1.8-1.72,4.49-3.82,9.58-3.82c6.43,0,9.27,3.91,7.7,11.28l-3.3,15.64
			h-10.41l3.15-14.96c0.46-2.09,0.6-4.52-2.1-4.52c-2.47,0-3.84,1.81-4.59,5.39l-2.99,14.09h-10.5l3.15-14.96
			c0.43-1.95,0.77-4.6-2.05-4.6c-2.47,0-3.95,2.1-4.7,5.67l-2.92,13.9h-10.46L112.16,272.5z"/>
		<path class="st1" d="M170.39,280.26c-0.02,0.21-0.04,0.61-0.04,0.83c0,2.31,1.18,4.04,4.01,4.04c2.41,0,3.51-0.78,4.33-2.17h10.22
			c-1.68,4.52-6.12,8.87-15.45,8.87c-10.03,0-13.46-5.8-13.46-11.96c0-7.51,5.15-15.66,16.79-15.66c9.53,0,13.63,5.05,13.65,11.36
			c0,1.79-0.22,3.2-0.65,4.69H170.39z M180.47,274.72c0.05-0.29,0.07-0.62,0.07-0.89c0-2.13-1.35-3.35-3.87-3.35
			c-2.77,0-4.48,1.69-5.07,4.24H180.47z"/>
		<path class="st1" d="M237.69,276.19c0,8.2-5.38,15.59-17.55,15.62c-9.93,0.03-13.88-5.54-13.88-11.7
			c0-8.41,5.65-15.91,17.33-15.91C232.45,264.2,237.69,269.03,237.69,276.19z M216.9,280.5c0,2.81,1.28,4.51,3.76,4.51
			c4.16,0,6.25-5.73,6.25-9.87c0-2.51-1.15-4.21-3.86-4.21C219.1,270.94,216.9,276.49,216.9,280.5z"/>
		<path class="st1" d="M242.49,264.9h4.21l1.68-7.42h10.61l-1.68,7.42h5.11l-1.44,6.82h-5.09l-2.14,9.88
			c-0.4,1.84-0.24,2.77,1.93,2.77c0.67,0,1.74-0.05,2.33-0.17l-1.39,6.64c-1.87,0.42-3.98,0.6-6.02,0.6c-7.35,0-8.86-3.2-7.77-8.41
			l2.46-11.31h-4.22L242.49,264.9z"/>
		<path class="st1" d="M279.73,254.17l-2.81,13.25c1.41-1.26,3.87-3.23,8.44-3.23c6.62,0,9.41,4.17,7.93,11.25l-3.3,15.66h-10.61
			l3.21-15.23c0.53-2.51,0.26-4.34-2.53-4.34c-2.61,0-4.4,1.83-5.3,6.18l-2.81,13.38h-10.58l7.82-36.94H279.73z"/>
		<path class="st1" d="M307.68,280.26c-0.02,0.21-0.04,0.61-0.04,0.83c0,2.31,1.18,4.04,4.01,4.04c2.41,0,3.51-0.78,4.33-2.17h10.22
			c-1.68,4.52-6.12,8.87-15.44,8.87c-10.03,0-13.46-5.8-13.46-11.96c0-7.51,5.15-15.66,16.79-15.66c9.53,0,13.63,5.05,13.64,11.36
			c0,1.79-0.22,3.2-0.65,4.69H307.68z M317.77,274.72c0.05-0.29,0.07-0.62,0.07-0.89c0-2.13-1.35-3.35-3.87-3.35
			c-2.77,0-4.48,1.69-5.07,4.24H317.77z"/>
		<path class="st1" d="M333.09,273.08c0.71-3.34,1.34-6.16,1.64-8.18h10.06c-0.08,1.05-0.31,3.08-0.7,4.89
			c2.07-3.63,4.96-5.52,9.91-5.49l-2.28,9.69c-4.94-0.13-8.53,1.36-9.98,8.4l-1.81,8.72h-10.64L333.09,273.08z"/>
		<path class="st1" d="M403.09,254.17l-6.23,29.39c-0.62,2.98-1.09,5.43-1.45,7.55h-10.38c0.05-0.63,0.11-1.55,0.28-2.33
			c-1.83,1.88-4.08,3.03-8.22,3.03c-6.29,0-9.95-4.75-9.95-11.32c0-8.33,5.56-16.22,15.04-16.29c4.25-0.02,6.64,1.43,7.6,2.68
			l2.69-12.71H403.09z M377.93,280.18c0,2.7,1.35,4.45,3.81,4.45c3.45,0,5.22-2.65,6.01-6.43c0.88-4.33,0.03-6.88-3.67-6.88
			C379.98,271.32,377.93,276.4,377.93,280.18z"/>
		<path class="st1" d="M412.98,280.26c-0.02,0.21-0.04,0.61-0.04,0.83c0,2.31,1.18,4.04,4.01,4.04c2.41,0,3.51-0.78,4.33-2.17h10.22
			c-1.68,4.52-6.12,8.87-15.45,8.87c-10.03,0-13.46-5.8-13.46-11.96c0-7.51,5.15-15.66,16.79-15.66c9.53,0,13.63,5.05,13.65,11.36
			c0,1.79-0.22,3.2-0.65,4.69H412.98z M423.07,274.72c0.05-0.29,0.07-0.62,0.07-0.89c0-2.13-1.35-3.35-3.87-3.35
			c-2.76,0-4.47,1.69-5.07,4.24H423.07z"/>
		<path class="st1" d="M444.68,282.86c0.25,1.55,1.35,2.7,3.99,2.7c1.47,0,3.18-0.38,3.18-1.84c0-1.26-1.13-1.84-4.57-2.58
			c-8.08-1.75-9.91-4.43-9.91-7.82c0-5.18,4.45-9.12,12.89-9.12c10.14,0,13.31,4.8,13.43,8.68h-9.6c-0.11-1.34-1.04-2.57-3.57-2.57
			c-1.14,0-2.68,0.26-2.68,1.64c0,1.09,1.11,1.62,4.31,2.35c8.29,1.87,10.39,4.53,10.39,8.27c0,6.08-5.53,9.24-14.06,9.24
			c-8.42,0-13.19-3.42-13.44-8.96H444.68z"/>
		<path class="st1" d="M470.69,264.9h10.58l-5.55,26.21h-10.58L470.69,264.9z M472.9,254.17h10.62l-1.49,7.1h-10.63L472.9,254.17z"
			/>
		<path class="st1" d="M511.61,288.6c-2.02,9.55-6.77,13.73-17.48,13.73c-11.8,0-13.5-5.87-13.55-9.41h10.24
			c0.2,1.22,0.8,2.75,4.11,2.75c3.68,0,4.95-2.12,5.93-6l0.4-1.6c-1.97,1.97-4.13,2.96-8.05,2.96c-6.34,0-10.18-4.42-10.18-10.93
			c0-7.74,5.36-15.89,14.53-15.89c4.21,0,6.78,1.41,8,3.31c0.29-0.9,0.63-2,0.87-2.61h10.34c-0.54,2.13-1.14,4.69-1.74,7.58
			L511.61,288.6z M494.09,279.55c0,2.89,1.17,4.43,3.88,4.43c3.23,0,4.9-2.55,5.66-6.12c0.81-3.81-0.17-6.56-3.51-6.56
			C496.15,271.31,494.09,276.23,494.09,279.55z"/>
		<path class="st1" d="M521.05,272.1c0.7-3.38,1.11-5.47,1.44-7.2h10.37c-0.03,0.51-0.23,2.09-0.36,2.85
			c1.68-1.69,4.25-3.55,8.92-3.55c6.08,0,9.18,3.66,7.65,10.98l-3.37,15.94h-10.61l3.19-15.19c0.51-2.53,0.26-4.38-2.5-4.38
			c-2.7,0-4.44,1.8-5.32,6.04l-2.81,13.53h-10.58L521.05,272.1z"/>
		<path class="st1" d="M561.78,282.86c0.25,1.55,1.35,2.7,3.99,2.7c1.47,0,3.18-0.38,3.18-1.84c0-1.26-1.13-1.84-4.57-2.58
			c-8.08-1.75-9.91-4.43-9.91-7.82c0-5.18,4.45-9.12,12.89-9.12c10.14,0,13.31,4.8,13.43,8.68h-9.6c-0.11-1.34-1.04-2.57-3.57-2.57
			c-1.14,0-2.68,0.26-2.68,1.64c0,1.09,1.11,1.62,4.31,2.35c8.29,1.87,10.39,4.53,10.39,8.27c0,6.08-5.53,9.24-14.06,9.24
			c-8.42,0-13.19-3.42-13.44-8.96H561.78z"/>
	</g>
</g>
<g>
	<g>
		<path class="st1" d="M53.39,329.94c0.25,1.55,1.35,2.7,3.99,2.7c1.47,0,3.18-0.38,3.18-1.84c0-1.26-1.13-1.84-4.57-2.58
			c-8.08-1.75-9.91-4.43-9.91-7.82c0-5.18,4.45-9.12,12.89-9.12c10.14,0,13.31,4.8,13.43,8.68h-9.6c-0.11-1.34-1.04-2.57-3.57-2.57
			c-1.14,0-2.68,0.26-2.68,1.64c0,1.09,1.11,1.62,4.31,2.35c8.29,1.87,10.39,4.53,10.39,8.27c0,6.08-5.53,9.24-14.06,9.24
			c-8.42,0-13.19-3.42-13.44-8.96H53.39z"/>
		<path class="st1" d="M106.5,323.28c0,8.2-5.38,15.59-17.55,15.62c-9.93,0.03-13.88-5.54-13.88-11.7c0-8.41,5.65-15.91,17.33-15.91
			C101.26,311.29,106.5,316.12,106.5,323.28z M85.7,327.59c0,2.81,1.28,4.51,3.76,4.51c4.16,0,6.25-5.73,6.25-9.87
			c0-2.51-1.15-4.21-3.86-4.21C87.9,318.02,85.7,323.57,85.7,327.59z"/>
		<path class="st1" d="M112.16,319.59c0.78-3.78,1.19-5.92,1.49-7.6h10.16c-0.03,0.68-0.11,1.77-0.28,2.83
			c1.94-1.98,4.38-3.53,8.35-3.53c4.66,0,6.09,1.95,6.78,3.82c1.8-1.72,4.49-3.82,9.58-3.82c6.43,0,9.27,3.91,7.7,11.28l-3.3,15.64
			h-10.41l3.15-14.96c0.46-2.09,0.6-4.52-2.1-4.52c-2.47,0-3.84,1.81-4.59,5.39l-2.99,14.09h-10.5l3.15-14.96
			c0.43-1.95,0.77-4.6-2.05-4.6c-2.47,0-3.95,2.1-4.7,5.67l-2.92,13.9h-10.46L112.16,319.59z"/>
		<path class="st1" d="M170.39,327.34c-0.02,0.21-0.04,0.61-0.04,0.83c0,2.31,1.18,4.04,4.01,4.04c2.41,0,3.51-0.78,4.33-2.17h10.22
			c-1.68,4.52-6.12,8.87-15.45,8.87c-10.03,0-13.46-5.8-13.46-11.96c0-7.51,5.15-15.66,16.79-15.66c9.53,0,13.63,5.05,13.65,11.36
			c0,1.79-0.22,3.2-0.65,4.69H170.39z M180.47,321.81c0.05-0.29,0.07-0.62,0.07-0.89c0-2.13-1.35-3.35-3.87-3.35
			c-2.77,0-4.48,1.69-5.07,4.24H180.47z"/>
		<path class="st1" d="M237.69,323.28c0,8.2-5.38,15.59-17.55,15.62c-9.93,0.03-13.88-5.54-13.88-11.7
			c0-8.41,5.65-15.91,17.33-15.91C232.45,311.29,237.69,316.12,237.69,323.28z M216.9,327.59c0,2.81,1.28,4.51,3.76,4.51
			c4.16,0,6.25-5.73,6.25-9.87c0-2.51-1.15-4.21-3.86-4.21C219.1,318.02,216.9,323.57,216.9,327.59z"/>
		<path class="st1" d="M242.49,311.99h4.21l1.68-7.42h10.61l-1.68,7.42h5.11l-1.44,6.82h-5.09l-2.14,9.88
			c-0.4,1.84-0.24,2.77,1.93,2.77c0.67,0,1.74-0.05,2.33-0.17l-1.39,6.64c-1.87,0.42-3.98,0.6-6.02,0.6c-7.35,0-8.86-3.2-7.77-8.41
			l2.46-11.31h-4.22L242.49,311.99z"/>
		<path class="st1" d="M279.73,301.26l-2.81,13.25c1.41-1.26,3.87-3.23,8.44-3.23c6.62,0,9.41,4.17,7.93,11.25l-3.3,15.66h-10.61
			l3.21-15.23c0.53-2.51,0.26-4.34-2.53-4.34c-2.61,0-4.4,1.83-5.3,6.18l-2.81,13.38h-10.58l7.82-36.94H279.73z"/>
		<path class="st1" d="M307.68,327.34c-0.02,0.21-0.04,0.61-0.04,0.83c0,2.31,1.18,4.04,4.01,4.04c2.41,0,3.51-0.78,4.33-2.17h10.22
			c-1.68,4.52-6.12,8.87-15.44,8.87c-10.03,0-13.46-5.8-13.46-11.96c0-7.51,5.15-15.66,16.79-15.66c9.53,0,13.63,5.05,13.64,11.36
			c0,1.79-0.22,3.2-0.65,4.69H307.68z M317.77,321.81c0.05-0.29,0.07-0.62,0.07-0.89c0-2.13-1.35-3.35-3.87-3.35
			c-2.77,0-4.48,1.69-5.07,4.24H317.77z"/>
		<path class="st1" d="M333.09,320.17c0.71-3.34,1.34-6.16,1.64-8.18h10.06c-0.08,1.05-0.31,3.08-0.7,4.89
			c2.07-3.63,4.96-5.52,9.91-5.49l-2.28,9.69c-4.94-0.13-8.53,1.36-9.98,8.4l-1.81,8.72h-10.64L333.09,320.17z"/>
		<path class="st1" d="M403.09,301.26l-6.23,29.39c-0.62,2.98-1.09,5.43-1.45,7.55h-10.38c0.05-0.63,0.11-1.55,0.28-2.33
			c-1.83,1.88-4.08,3.03-8.22,3.03c-6.29,0-9.95-4.75-9.95-11.32c0-8.33,5.56-16.22,15.04-16.29c4.25-0.02,6.64,1.43,7.6,2.68
			l2.69-12.71H403.09z M377.93,327.27c0,2.7,1.35,4.45,3.81,4.45c3.45,0,5.22-2.65,6.01-6.43c0.88-4.33,0.03-6.88-3.67-6.88
			C379.98,318.41,377.93,323.49,377.93,327.27z"/>
		<path class="st1" d="M412.98,327.34c-0.02,0.21-0.04,0.61-0.04,0.83c0,2.31,1.18,4.04,4.01,4.04c2.41,0,3.51-0.78,4.33-2.17h10.22
			c-1.68,4.52-6.12,8.87-15.45,8.87c-10.03,0-13.46-5.8-13.46-11.96c0-7.51,5.15-15.66,16.79-15.66c9.53,0,13.63,5.05,13.65,11.36
			c0,1.79-0.22,3.2-0.65,4.69H412.98z M423.07,321.81c0.05-0.29,0.07-0.62,0.07-0.89c0-2.13-1.35-3.35-3.87-3.35
			c-2.76,0-4.47,1.69-5.07,4.24H423.07z"/>
		<path class="st1" d="M444.68,329.94c0.25,1.55,1.35,2.7,3.99,2.7c1.47,0,3.18-0.38,3.18-1.84c0-1.26-1.13-1.84-4.57-2.58
			c-8.08-1.75-9.91-4.43-9.91-7.82c0-5.18,4.45-9.12,12.89-9.12c10.14,0,13.31,4.8,13.43,8.68h-9.6c-0.11-1.34-1.04-2.57-3.57-2.57
			c-1.14,0-2.68,0.26-2.68,1.64c0,1.09,1.11,1.62,4.31,2.35c8.29,1.87,10.39,4.53,10.39,8.27c0,6.08-5.53,9.24-14.06,9.24
			c-8.42,0-13.19-3.42-13.44-8.96H444.68z"/>
		<path class="st1" d="M470.69,311.99h10.58l-5.55,26.21h-10.58L470.69,311.99z M472.9,301.26h10.62l-1.49,7.1h-10.63L472.9,301.26z
			"/>
		<path class="st1" d="M511.61,335.69c-2.02,9.55-6.77,13.73-17.48,13.73c-11.8,0-13.5-5.87-13.55-9.41h10.24
			c0.2,1.22,0.8,2.75,4.11,2.75c3.68,0,4.95-2.12,5.93-6l0.4-1.6c-1.97,1.97-4.13,2.96-8.05,2.96c-6.34,0-10.18-4.42-10.18-10.93
			c0-7.74,5.36-15.89,14.53-15.89c4.21,0,6.78,1.41,8,3.31c0.29-0.9,0.63-2,0.87-2.61h10.34c-0.54,2.13-1.14,4.69-1.74,7.58
			L511.61,335.69z M494.09,326.64c0,2.89,1.17,4.43,3.88,4.43c3.23,0,4.9-2.55,5.66-6.12c0.81-3.81-0.17-6.56-3.51-6.56
			C496.15,318.39,494.09,323.31,494.09,326.64z"/>
		<path class="st1" d="M521.05,319.19c0.7-3.38,1.11-5.47,1.44-7.2h10.37c-0.03,0.51-0.23,2.09-0.36,2.85
			c1.68-1.69,4.25-3.55,8.92-3.55c6.08,0,9.18,3.66,7.65,10.98l-3.37,15.94h-10.61l3.19-15.19c0.51-2.53,0.26-4.38-2.5-4.38
			c-2.7,0-4.44,1.8-5.32,6.04l-2.81,13.53h-10.58L521.05,319.19z"/>
		<path class="st1" d="M561.78,329.94c0.25,1.55,1.35,2.7,3.99,2.7c1.47,0,3.18-0.38,3.18-1.84c0-1.26-1.13-1.84-4.57-2.58
			c-8.08-1.75-9.91-4.43-9.91-7.82c0-5.18,4.45-9.12,12.89-9.12c10.14,0,13.31,4.8,13.43,8.68h-9.6c-0.11-1.34-1.04-2.57-3.57-2.57
			c-1.14,0-2.68,0.26-2.68,1.64c0,1.09,1.11,1.62,4.31,2.35c8.29,1.87,10.39,4.53,10.39,8.27c0,6.08-5.53,9.24-14.06,9.24
			c-8.42,0-13.19-3.42-13.44-8.96H561.78z"/>
	</g>
</g>
<g>
	<g>
		<path class="st3" d="M270.69,369.65c-0.66,2.31-2.46,4.11-6.32,4.11c-3.96,0-5.24-2.29-5.24-4.56c0-2.97,1.89-6.49,6.72-6.49
			c4.68,0,5.39,2.83,5.33,4.17h-4.07c0.02-0.76-0.19-1.54-1.33-1.54c-1.59,0-2.39,2.39-2.39,4.05c0,1.12,0.42,1.74,1.35,1.74
			c0.86,0,1.43-0.47,1.86-1.47H270.69z"/>
		<path class="st3" d="M271.61,373.48l3.13-14.78h4.23l-3.13,14.78H271.61z"/>
		<path class="st3" d="M280.48,362.99h4.23l-2.22,10.49h-4.23L280.48,362.99z M281.36,358.7h4.25l-0.6,2.84h-4.25L281.36,358.7z"/>
		<path class="st3" d="M296.95,369.65c-0.66,2.31-2.46,4.11-6.32,4.11c-3.96,0-5.24-2.29-5.24-4.56c0-2.97,1.89-6.49,6.72-6.49
			c4.68,0,5.39,2.83,5.33,4.17h-4.07c0.02-0.76-0.19-1.54-1.33-1.54c-1.59,0-2.39,2.39-2.39,4.05c0,1.12,0.42,1.74,1.35,1.74
			c0.86,0,1.43-0.47,1.86-1.47H296.95z"/>
		<path class="st3" d="M303.44,367.05c1.14-1.2,2.79-2.7,4.1-4.06h4.98c-1.68,1.4-3.24,2.71-4.82,4.1c0.29,0.77,2.52,5.6,2.83,6.38
			h-4.68c-0.04-0.22-1.35-3.9-1.39-4.1l-1.76,1.27l-0.6,2.83h-4.23L301,358.7h4.23L303.44,367.05z"/>
		<path class="st3" d="M323.97,358.7l-1.12,5.3c0.56-0.5,1.55-1.29,3.38-1.29c2.65,0,3.77,1.67,3.17,4.5l-1.32,6.27h-4.24l1.28-6.09
			c0.21-1,0.1-1.74-1.01-1.74c-1.04,0-1.76,0.73-2.12,2.47l-1.12,5.35h-4.23l3.13-14.78H323.97z"/>
		<path class="st3" d="M335.15,369.13c-0.01,0.08-0.01,0.24-0.01,0.33c0,0.92,0.47,1.61,1.6,1.61c0.97,0,1.41-0.31,1.73-0.87h4.09
			c-0.67,1.81-2.45,3.55-6.18,3.55c-4.01,0-5.39-2.32-5.39-4.78c0-3,2.06-6.26,6.72-6.26c3.81,0,5.45,2.02,5.46,4.55
			c0,0.72-0.09,1.28-0.26,1.88H335.15z M339.19,366.92c0.02-0.12,0.03-0.25,0.03-0.36c0-0.85-0.54-1.34-1.55-1.34
			c-1.11,0-1.79,0.67-2.03,1.7H339.19z"/>
		<path class="st3" d="M345.31,366.26c0.28-1.34,0.54-2.46,0.66-3.27H350c-0.03,0.42-0.12,1.23-0.28,1.95
			c0.83-1.45,1.98-2.21,3.96-2.2l-0.91,3.88c-1.98-0.05-3.41,0.54-3.99,3.36l-0.72,3.49h-4.26L345.31,366.26z"/>
		<path class="st3" d="M357.93,369.13c-0.01,0.08-0.01,0.24-0.01,0.33c0,0.92,0.47,1.61,1.6,1.61c0.97,0,1.41-0.31,1.73-0.87h4.09
			c-0.67,1.81-2.45,3.55-6.18,3.55c-4.01,0-5.39-2.32-5.39-4.78c0-3,2.06-6.26,6.72-6.26c3.81,0,5.45,2.02,5.46,4.55
			c0,0.72-0.09,1.28-0.26,1.88H357.93z M361.97,366.92c0.02-0.12,0.03-0.25,0.03-0.36c0-0.85-0.54-1.34-1.55-1.34
			c-1.11,0-1.79,0.67-2.03,1.7H361.97z"/>
	</g>
</g>
</svg>
